<?xml version="1.0" encoding="utf-8"?>
<!-- Generator: Adobe Illustrator 17.0.0, SVG Export Plug-In . SVG Version: 6.00 Build 0)  -->
<!DOCTYPE svg PUBLIC "-//W3C//DTD SVG 1.1//EN" "http://www.w3.org/Graphics/SVG/1.1/DTD/svg11.dtd">
<svg version="1.1" id="Layer_1" xmlns="http://www.w3.org/2000/svg" xmlns:xlink="http://www.w3.org/1999/xlink" x="0px" y="0px"
	 width="272.381px" height="75.154px" viewBox="-50.606 -13.1 272.381 75.154"
	 enable-background="new -50.606 -13.1 272.381 75.154" xml:space="preserve">
<g id="T50hdl_1_">
	<g>
		<g>
			<path fill="#050505" d="M39.774,56.828c-1.296,0.893-2.696,1.269-4.243,1.193c-2.907-0.143-4.729-2.328-3.884-5.574
				c0.353-1.358,1.284-2.346,2.307-3.323c-0.323-0.611-0.658-1.202-0.956-1.812c-0.649-1.331-0.787-2.724-0.386-4.148
				c0.324-1.153,1.086-1.874,2.284-2.078c3.303-0.561,5.224,1.357,4.368,4.864c-0.358,1.465-1.327,2.573-2.539,3.689
				c0.966,1.352,1.927,2.696,3.066,4.289c0.426-1.126,0.752-1.988,1.107-2.925c0.57,0.17,1.146,0.342,1.908,0.57
				c-0.491,1.219-0.958,2.377-1.442,3.579c0.62,0.785,0.817,0.863,2.51,0.898c0.028,0.585,0.056,1.177,0.086,1.81
				C42.33,58.199,40.984,57.831,39.774,56.828z M35.114,50.974c-0.898,0.818-1.329,1.479-1.532,2.34
				c-0.307,1.304,0.376,2.425,1.671,2.738c1.13,0.273,2.132-0.023,3.111-0.664C37.256,53.883,36.185,52.429,35.114,50.974z
				 M35.728,47.948c1.161-1.117,2.001-2.226,1.734-3.824c-0.157-0.937-0.693-1.406-1.538-1.379
				c-0.848,0.027-1.359,0.518-1.445,1.472C34.355,45.593,34.851,46.776,35.728,47.948z"/>
			<path fill="#050505" d="M196.369,33.124c-1.363-1.492-0.181-2.557,0.598-3.724c-1.606-1.551-1.691-3.459-1.229-5.458
				c0.287-1.244,1.124-2.071,2.351-2.337c0.876-0.19,1.835-0.316,2.701-0.161c1.714,0.307,3.399,0.313,5.184-0.006
				c0,0.58,0,1.113,0,1.731c-0.706,0.112-1.444,0.23-2.188,0.349c1.19,4.162-0.273,6.944-5.15,6.562
				c-0.271,0.434-0.567,0.909-0.98,1.571c0.596,0.086,0.97,0.179,1.345,0.186c1.059,0.021,2.118-0.003,3.177,0.01
				c1.641,0.02,2.628,0.674,2.94,1.925c0.395,1.585-0.21,3.114-1.575,3.848c-1.573,0.846-3.282,0.9-5.009,0.745
				c-0.397-0.036-0.797-0.114-1.179-0.228c-2.009-0.597-2.697-2.462-1.566-4.226C195.944,33.668,196.132,33.444,196.369,33.124z
				 M202.357,25.643c-0.008-1.729-0.826-2.543-2.544-2.532c-1.613,0.011-2.47,0.873-2.493,2.508
				c-0.026,1.763,0.859,2.716,2.525,2.72C201.555,28.343,202.366,27.473,202.357,25.643z M203.395,34.686
				c-0.138-0.893-0.722-1.204-1.48-1.224c-1.198-0.031-2.398-0.008-3.799-0.008c-0.141,0.195-0.327,0.468-0.529,0.728
				c-0.808,1.036-0.464,2.148,0.842,2.331c1.025,0.144,2.098,0.081,3.135-0.03C202.549,36.379,203.233,35.802,203.395,34.686z"/>
			<path fill="#050505" d="M57.962,51.017c1.134,2.251,2.241,4.451,3.389,6.729c-0.768,0-1.446,0-2.248,0
				c-1.084-2.179-2.198-4.419-3.342-6.719c-0.864,0-1.753,0-2.729,0c0,2.248,0,4.457,0,6.719c-0.684,0-1.282,0-1.932,0
				c0-5.504,0-10.963,0-16.549c0.745,0,1.467-0.007,2.188,0.001c1.459,0.016,2.922-0.026,4.375,0.077
				c1.883,0.134,2.854,0.978,3.322,2.774c0.355,1.363,0.346,2.75,0.003,4.114c-0.333,1.327-1.105,2.277-2.49,2.632
				C58.33,50.84,58.174,50.929,57.962,51.017z M53.059,49.038c1.477,0,2.923,0.042,4.364-0.017c0.748-0.031,1.263-0.52,1.501-1.242
				c0.363-1.102,0.339-2.213,0.022-3.32c-0.211-0.737-0.739-1.255-1.46-1.297c-1.467-0.087-2.944-0.026-4.428-0.026
				C53.059,45.137,53.059,47.055,53.059,49.038z"/>
			<path fill="#020202" d="M110.433,8.507c-0.839,0-1.491,0-2.239,0c-1.12-2.251-2.249-4.52-3.385-6.804c-0.88,0-1.71,0-2.65,0
				c0,2.234,0,4.476,0,6.773c-0.713,0-1.317,0-1.972,0c0-5.487,0-10.943,0-16.491c2.305,0,4.597-0.085,6.878,0.03
				c1.474,0.074,2.474,1.007,2.914,2.434c0.428,1.388,0.416,2.82,0.132,4.222c-0.343,1.697-0.973,2.265-3.072,3.069
				C108.146,3.949,109.252,6.154,110.433,8.507z M102.195-6.169c0,2.076,0,4.026,0,6.002c1.327,0,2.567,0.019,3.806-0.005
				c1.203-0.023,1.894-0.493,2.085-1.67c0.148-0.912,0.121-1.891-0.041-2.802c-0.18-1.015-0.836-1.479-1.87-1.513
				C104.866-6.202,103.555-6.169,102.195-6.169z"/>
			<path fill="#050505" d="M33.744,2.168c0,2.115,0,4.185,0,6.31c-0.689,0-1.291,0-1.944,0c0-5.481,0-10.909,0-16.43
				c0.247-0.024,0.521-0.074,0.795-0.075c1.789-0.007,3.579-0.007,5.368-0.003c2.012,0.005,3.209,0.906,3.731,2.853
				c0.395,1.472,0.396,2.965,0.015,4.438c-0.485,1.869-1.717,2.811-3.642,2.835c-1.351,0.017-2.701,0.015-4.052,0.023
				C33.979,2.121,33.943,2.133,33.744,2.168z M33.769,0.27c1.421,0,2.73,0.03,4.036-0.01c0.875-0.027,1.528-0.474,1.814-1.328
				c0.428-1.28,0.423-2.577-0.027-3.847c-0.249-0.703-0.793-1.18-1.547-1.207c-1.41-0.051-2.823-0.015-4.276-0.015
				C33.769-3.988,33.769-1.927,33.769,0.27z"/>
			<path fill="#060606" d="M31.092,33.259c0.045-0.784,0.079-1.386,0.117-2.049c0.946,0.077,1.814,0.203,2.681,0.203
				c0.942,0,1.895-0.051,2.823-0.204c0.782-0.128,1.441-0.553,1.622-1.422c0.184-0.88,0.018-1.687-0.69-2.287
				c-0.555-0.47-1.161-0.881-1.752-1.307c-1.065-0.767-2.156-1.499-3.198-2.296c-1.192-0.913-1.859-2.12-1.861-3.66
				c-0.003-2.003,1.036-3.376,3.021-3.668c1.323-0.195,2.685-0.147,4.03-0.167c0.506-0.007,1.014,0.101,1.634,0.169
				c-0.036,0.604-0.073,1.201-0.102,1.684c-1.229,0-2.384-0.003-3.539,0.002c-0.365,0.002-0.733-0.003-1.093,0.042
				c-1.746,0.214-2.462,1.911-1.371,3.304c0.309,0.394,0.724,0.72,1.133,1.018c1.355,0.987,2.739,1.935,4.095,2.922
				c1.341,0.976,1.968,2.288,1.856,3.968c-0.09,1.344-0.624,2.439-1.844,3.01c-0.874,0.409-1.849,0.748-2.8,0.814
				C34.309,33.441,32.747,33.299,31.092,33.259z"/>
			<path fill="#090909" d="M144.871,24.097c0,3.018,0,5.971,0,8.998c-0.631,0-1.225,0-1.881,0c0-5.698,0-11.377,0-17.14
				c0.567,0,1.162,0,1.841,0c0,2.026,0,4.091,0,6.211c0.872-0.252,1.644-0.602,2.441-0.673c0.961-0.085,1.97-0.058,2.907,0.151
				c0.945,0.21,1.65,0.979,1.673,1.955c0.075,3.16,0.028,6.323,0.028,9.527c-0.607,0-1.144,0-1.794,0
				c-0.023-0.299-0.068-0.608-0.068-0.917c-0.006-2.263-0.002-4.526-0.004-6.789c0-0.328,0.008-0.658-0.026-0.984
				c-0.097-0.926-0.471-1.292-1.398-1.344C147.273,23.017,146.076,23.416,144.871,24.097z"/>
			<path fill="#070707" d="M124.646,48.527c0,3.211,0,6.194,0,9.224c-0.655,0-1.226,0-1.862,0c0-5.708,0-11.426,0-17.213
				c0.583,0,1.176,0,1.873,0c0,2.098,0,4.162,0,6.165c1.145-0.246,2.195-0.543,3.266-0.675c0.63-0.078,1.321,0.012,1.935,0.193
				c1.07,0.316,1.8,1.104,1.824,2.221c0.066,3.093,0.023,6.189,0.023,9.321c-0.659,0-1.23,0-1.884,0
				c-0.017-0.339-0.045-0.656-0.046-0.973c-0.004-2.447,0.005-4.895-0.005-7.342c-0.005-1.363-0.535-1.919-1.877-1.737
				C126.829,47.854,125.796,48.229,124.646,48.527z"/>
			<path fill="#050505" d="M206.797,38.162c0.051-0.646,0.089-1.141,0.13-1.664c0.921-0.118,1.952,0.357,2.648-0.383
				c0.527-0.56,0.822-1.338,1.197-1.979c-1.409-4.239-2.774-8.345-4.16-12.518c0.741,0,1.388,0,2.073,0
				c0.989,3.033,1.975,6.058,2.96,9.082c0.06-0.003,0.12-0.005,0.18-0.008c0.993-3.018,1.986-6.035,2.987-9.077
				c0.648,0,1.259,0,1.963,0c-0.544,1.644-1.071,3.248-1.606,4.849c-0.899,2.689-1.802,5.377-2.707,8.065
				c-0.151,0.448-0.302,0.897-0.484,1.332c-0.745,1.775-1.792,2.454-3.733,2.417C207.814,38.27,207.384,38.211,206.797,38.162z"/>
			<path fill="#070707" d="M137.297,2.8c-0.19,1.059-0.281,2.123-0.585,3.122c-0.475,1.562-1.589,2.509-3.232,2.725
				c-0.683,0.09-1.387,0.137-2.071,0.078c-2.211-0.193-3.456-1.267-3.966-3.432c-0.434-1.841-0.416-3.695,0.112-5.518
				c0.53-1.831,1.833-2.869,3.739-2.989c0.726-0.046,1.47-0.064,2.185,0.044c1.615,0.246,2.771,1.161,3.234,2.738
				C137.019,0.605,137.108,1.705,137.297,2.8z M135.295,2.899c-0.118-0.862-0.165-1.593-0.325-2.299
				c-0.304-1.345-1.138-2.025-2.438-2.081c-1.778-0.077-2.601,0.376-3.054,1.831c-0.51,1.638-0.5,3.306,0.051,4.936
				c0.408,1.209,1.213,1.692,2.619,1.701c1.41,0.009,2.255-0.459,2.649-1.655C135.066,4.513,135.151,3.634,135.295,2.899z"/>
			<path fill="#070707" d="M92.55,2.971c-0.161,0.876-0.26,1.978-0.579,3.012c-0.468,1.52-1.573,2.45-3.169,2.648
				c-0.824,0.102-1.676,0.105-2.503,0.027c-1.79-0.171-2.951-1.196-3.452-2.899c-0.579-1.966-0.58-3.965-0.031-5.939
				c0.522-1.877,1.873-2.924,3.818-3.044c0.437-0.027,0.877-0.028,1.315-0.017c2.345,0.06,3.833,1.297,4.276,3.601
				C92.376,1.145,92.427,1.95,92.55,2.971z M90.602,2.79c-0.166-0.885-0.249-1.762-0.505-2.585
				c-0.375-1.209-1.137-1.667-2.495-1.687c-1.545-0.022-2.375,0.4-2.783,1.607c-0.587,1.737-0.592,3.517,0.008,5.254
				c0.387,1.12,1.242,1.597,2.587,1.608c1.412,0.011,2.26-0.455,2.654-1.643C90.341,4.527,90.429,3.65,90.602,2.79z"/>
			<path fill="#0D0D0D" d="M43.949-2.986c0.682,0,1.255,0,1.927,0c0,0.691,0,1.339,0,1.987c0,2.118-0.009,4.237,0.003,6.355
				c0.007,1.289,0.437,1.721,1.714,1.693c1.186-0.026,2.285-0.375,3.359-1.041c0-2.972,0-5.955,0-8.989c0.646,0,1.216,0,1.864,0
				c0,3.779,0,7.557,0,11.429c-0.406,0-0.854,0-1.371,0c-0.083-0.173-0.192-0.398-0.305-0.634c-0.163,0.07-0.33,0.134-0.489,0.212
				C49.476,8.6,48.23,8.806,46.935,8.762c-1.58-0.054-3.088-0.971-3.011-3.12C44.026,2.799,43.949-0.05,43.949-2.986z"/>
			<path fill="#070707" d="M193.492,27.363c-0.203,1.119-0.307,2.211-0.61,3.246c-0.434,1.484-1.494,2.374-3.033,2.648
				c-0.393,0.07-0.791,0.14-1.189,0.155c-3.217,0.124-5.029-1.458-5.191-4.681c-0.068-1.365-0.001-2.769,0.25-4.11
				c0.332-1.771,1.501-2.927,3.331-3.129c1.065-0.117,2.189-0.081,3.238,0.13c1.291,0.259,2.198,1.176,2.569,2.441
				C193.17,25.133,193.287,26.259,193.492,27.363z M191.462,27.364c-0.115-0.79-0.162-1.56-0.347-2.296
				c-0.325-1.287-1.198-1.914-2.558-1.954c-1.554-0.047-2.472,0.484-2.879,1.815c-0.49,1.601-0.496,3.24-0.015,4.848
				c0.391,1.309,1.264,1.858,2.744,1.848c1.454-0.01,2.357-0.604,2.698-1.91C191.304,28.947,191.349,28.138,191.462,27.364z"/>
			<path fill="#0D0D0D" d="M156.591,46.284c0.701,0,1.268,0,1.925,0c0,1.539,0,3.028,0,4.518c0,1.277-0.008,2.555,0.002,3.832
				c0.01,1.27,0.455,1.713,1.729,1.681c1.184-0.03,2.289-0.348,3.368-1.046c0-2.958,0-5.937,0-8.975c0.66,0,1.229,0,1.859,0
				c0,3.784,0,7.569,0,11.436c-0.404,0-0.856,0-1.394,0c-0.068-0.166-0.16-0.388-0.263-0.638c-0.234,0.098-0.471,0.186-0.699,0.293
				c-1.257,0.593-2.584,0.748-3.948,0.6c-1.554-0.169-2.544-1.128-2.567-2.62C156.558,52.376,156.591,49.386,156.591,46.284z"/>
			<path fill="#050505" d="M166.036,27.494c0.147-1.044,0.202-1.96,0.416-2.837c0.461-1.897,1.698-3.012,3.65-3.24
				c0.682-0.079,1.39-0.088,2.07-0.002c2.041,0.258,3.166,1.284,3.669,3.335c0.45,1.833,0.435,3.683-0.052,5.507
				c-0.456,1.707-1.562,2.731-3.331,3.044c-1.138,0.201-2.254,0.155-3.346-0.179c-1.276-0.39-2.139-1.281-2.499-2.538
				C166.314,29.546,166.207,28.452,166.036,27.494z M168.011,27.275c0.144,0.866,0.203,1.711,0.434,2.507
				c0.379,1.307,1.267,1.853,2.75,1.846c1.424-0.007,2.234-0.532,2.644-1.827c0.519-1.641,0.499-3.308-0.023-4.944
				c-0.385-1.207-1.23-1.731-2.599-1.745c-1.465-0.015-2.309,0.467-2.716,1.721C168.246,25.62,168.167,26.463,168.011,27.275z"/>
			<path fill="#050505" d="M102.638,57.772c-0.529,0-0.927,0-1.385,0c-0.109-0.176-0.233-0.375-0.357-0.575
				c-1.435,0.627-2.887,1.048-4.462,0.592c-1.496-0.433-2.258-1.414-2.333-3.049c-0.075-1.616,0.591-2.759,2.094-3.195
				c1.073-0.311,2.216-0.388,3.332-0.541c0.356-0.049,0.725-0.008,1.226-0.008c0-0.694,0.042-1.342-0.012-1.981
				c-0.053-0.639-0.401-1.158-1.087-1.165c-1.158-0.012-2.318,0.07-3.475,0.135c-0.324,0.018-0.642,0.12-1.048,0.199
				c0-0.578,0-1.107,0-1.718c1.727-0.398,3.471-0.687,5.263-0.321c1.376,0.281,2.193,1.066,2.223,2.451
				C102.684,51.622,102.638,54.651,102.638,57.772z M100.724,52.427c-1.301,0.199-2.49,0.301-3.635,0.582
				c-0.853,0.209-1.143,0.937-0.984,1.92c0.135,0.834,0.588,1.262,1.463,1.324c1.148,0.081,2.219-0.146,3.156-0.826
				C100.724,54.476,100.724,53.576,100.724,52.427z"/>
			<path fill="#070707" d="M98.882,27.711c-2.495,0-4.715,0-6.976,0c0,0.198-0.01,0.335,0.001,0.47
				c0.243,2.844,1.284,3.714,4.122,3.423c0.718-0.074,1.43-0.196,2.148-0.297c0.065,0.137,0.147,0.23,0.15,0.327
				c0.014,0.434,0.006,0.868,0.006,1.377c-1.967,0.46-3.936,0.691-5.886-0.052c-1.129-0.43-1.827-1.334-2.153-2.465
				c-0.587-2.034-0.612-4.091-0.07-6.149c0.438-1.661,1.513-2.654,3.191-2.87c0.886-0.114,1.816-0.062,2.706,0.062
				c1.346,0.187,2.155,1.109,2.405,2.372C98.762,25.101,98.764,26.34,98.882,27.711z M92.067,26.022c1.576,0,3.153,0,4.725,0
				c0.152-2.116-0.465-3.001-2.064-3.03C92.869,22.958,91.989,23.946,92.067,26.022z"/>
			<path fill="#050505" d="M71.864,52.285c-2.41,0-4.661,0-7.082,0c0.147,0.811,0.219,1.527,0.414,2.207
				c0.317,1.108,1.123,1.72,2.261,1.726c1.234,0.007,2.468-0.115,3.809-0.186c0.036,0.499,0.073,1.02,0.115,1.593
				c-1.683,0.45-3.31,0.535-4.938,0.27c-1.883-0.306-2.926-1.55-3.325-3.34c-0.395-1.768-0.42-3.568,0.019-5.327
				c0.616-2.467,2.194-3.345,4.873-3.234c2.381,0.099,3.401,1.146,3.677,3.508C71.787,50.367,71.8,51.241,71.864,52.285z
				 M69.812,50.665c0.084-2.228-0.509-3.014-2.206-3.002c-1.826,0.013-2.638,0.965-2.522,3.002
				C66.629,50.665,68.177,50.665,69.812,50.665z"/>
			<path fill="#040404" d="M64.436,2.99c-2.442,0-4.689,0-6.974,0c-0.067,1.014,0.068,1.892,0.487,2.72
				c0.357,0.705,0.939,1.163,1.715,1.183c1.085,0.028,2.174-0.063,3.26-0.114c0.28-0.013,0.558-0.067,0.879-0.108
				c0.039,0.574,0.073,1.075,0.115,1.688c-1.985,0.455-3.946,0.67-5.896-0.018c-1.097-0.387-1.81-1.246-2.145-2.335
				c-0.67-2.174-0.706-4.378-0.04-6.563c0.415-1.362,1.335-2.291,2.749-2.511c0.993-0.155,2.045-0.201,3.033-0.05
				c1.455,0.223,2.276,1.264,2.512,2.677C64.308,0.626,64.329,1.719,64.436,2.99z M62.37,1.374c0.004-2.296-0.561-3.029-2.251-3.007
				c-1.775,0.024-2.583,0.989-2.491,3.007C59.179,1.374,60.732,1.374,62.37,1.374z"/>
			<path fill="#070707" d="M130.07,31.365c0.03,0.528,0.059,1.029,0.094,1.645c-2.126,0.442-4.183,0.754-6.212-0.192
				c-0.988-0.461-1.569-1.307-1.865-2.314c-0.609-2.071-0.63-4.167-0.054-6.252c0.429-1.552,1.451-2.515,3.045-2.758
				c0.784-0.12,1.605-0.161,2.39-0.071c1.475,0.17,2.538,0.984,2.828,2.479c0.232,1.196,0.261,2.431,0.391,3.763
				c-2.442,0-4.688,0-7.071,0c0.102,0.738,0.128,1.383,0.289,1.993c0.335,1.275,1.192,1.954,2.556,1.95
				C127.618,31.604,128.773,31.458,130.07,31.365z M123.86,26.026c1.575,0,3.152,0,4.726,0c0.14-2.177-0.485-3.034-2.171-3.034
				C124.628,22.992,123.771,23.988,123.86,26.026z"/>
			<path fill="#060606" d="M65.721,31.341c0.04,0.532,0.078,1.033,0.124,1.652c-2.199,0.483-4.343,0.82-6.404-0.282
				c-1.394-0.745-1.878-2.152-1.98-3.589c-0.105-1.478-0.06-2.996,0.161-4.46c0.283-1.879,1.498-2.95,3.373-3.226
				c0.679-0.1,1.391-0.108,2.074-0.032c1.622,0.182,2.563,1.032,2.945,2.643c0.278,1.17,0.334,2.364,0.167,3.637
				c-1.172,0-2.298,0-3.424,0c-1.092,0-2.184,0-3.266,0c-0.465,2.467,0.743,3.968,3.174,3.928
				C63.642,31.597,64.617,31.444,65.721,31.341z M64.374,26.045c-0.13-1.141,0.051-2.332-1.152-2.839
				c-0.971-0.41-2.028-0.373-2.891,0.343c-0.785,0.651-0.864,1.565-0.824,2.496C61.17,26.045,62.696,26.045,64.374,26.045z"/>
			<path fill="#040404" d="M92.277,52.28c-2.263,0-4.51,0-6.827,0c0.022,0.442,0.01,0.8,0.061,1.148
				c0.317,2.144,1.212,2.905,3.387,2.822c0.938-0.036,1.873-0.171,2.913-0.271c0.037,0.547,0.072,1.07,0.111,1.647
				c-1.716,0.459-3.371,0.54-5.032,0.239c-1.734-0.315-2.743-1.456-3.146-3.111c-0.41-1.682-0.42-3.395-0.117-5.102
				c0.475-2.677,2.078-3.827,5.058-3.645c2.367,0.145,3.382,1.235,3.58,3.588C92.338,50.455,92.277,51.327,92.277,52.28z
				 M85.642,50.641c1.583,0,3.167,0,4.746,0c0.095-2.122-0.481-2.943-2.036-2.979C86.409,47.617,85.61,48.48,85.642,50.641z"/>
			<path fill="#0A0A0A" d="M163.773,33.13c-0.668,0-1.207,0-1.851,0c-0.022-0.31-0.062-0.623-0.063-0.935
				c-0.005-2.266-0.002-4.532-0.005-6.798c0-0.328,0.001-0.659-0.039-0.983c-0.116-0.944-0.465-1.276-1.416-1.324
				c-1.315-0.066-2.508,0.333-3.691,1.017c0,2.974,0,5.961,0,9.004c-0.635,0-1.205,0-1.856,0c0-3.804,0-7.616,0-11.483
				c0.421,0,0.847,0,1.345,0c0.104,0.181,0.238,0.416,0.386,0.674c1.301-0.646,2.623-1.001,4.043-0.951
				c2.037,0.072,3.115,1.098,3.138,3.122C163.797,27.322,163.773,30.171,163.773,33.13z"/>
			<path fill="#070707" d="M70.725,24.077c0,2.969,0,5.953,0,9.013c-0.66,0-1.252,0-1.9,0c0-3.823,0-7.633,0-11.48
				c0.47,0,0.897,0,1.379,0c0.077,0.204,0.158,0.419,0.26,0.689c1.318-0.585,2.627-0.987,4.042-0.95
				c2.167,0.057,3.225,1.1,3.228,3.249c0.004,2.805,0.001,5.61,0.001,8.492c-0.654,0-1.246,0-1.945,0c0-0.657,0-1.304,0-1.952
				c0-2.116,0.007-4.233-0.002-6.349c-0.005-1.3-0.42-1.71-1.698-1.708C72.897,23.084,71.807,23.443,70.725,24.077z"/>
			<path fill="#060606" d="M115.687,33.103c0-4.899,0-9.709,0-14.617c-1.456,0-2.859,0-4.314,0c0-0.663,0-1.229,0-1.859
				c3.531,0,7.052,0,10.634,0c0,0.577,0,1.145,0,1.806c-1.393,0-2.8,0-4.297,0c0,4.93,0,9.768,0,14.67
				C117.021,33.103,116.423,33.103,115.687,33.103z"/>
			<path d="M142.723,43.056c-1.547,0-2.952,0-4.378,0c0-0.653,0-1.218,0-1.816c3.547,0,7.042,0,10.615,0c0,0.553,0,1.115,0,1.767
				c-1.348,0-2.753,0-4.267,0c0,4.948,0,9.812,0,14.733c-0.705,0-1.303,0-1.971,0C142.723,52.899,142.723,48.059,142.723,43.056z"/>
			<path fill="#0D0D0D" d="M178.877,43.13c0.578,0,1.119,0,1.747,0c0,0.99,0,1.961,0,3.063c1.191,0,2.303,0,3.46,0
				c0,0.662,0,1.192,0,1.822c-1.111,0-2.192,0-3.25,0c-0.361,1.685-0.222,7.322,0.229,8.136c0.942,0,1.939,0,3.028,0
				c0.02,0.436,0.044,0.933,0.07,1.489c-1.164,0.425-2.349,0.485-3.533,0.292c-1.263-0.206-1.868-1.008-1.882-2.418
				c-0.021-2.08-0.005-4.161-0.005-6.241c0-0.361,0-0.722,0-1.181c-0.607-0.046-1.167-0.089-1.772-0.136c0-0.474,0-0.899,0-1.424
				c0.513-0.093,1.039-0.189,1.718-0.313C178.747,45.217,178.811,44.188,178.877,43.13z"/>
			<path fill="#060606" d="M80.818,46.178c-0.039,0.624-0.07,1.12-0.105,1.671c-1.671,0.049-3.377-0.61-4.822,0.422
				c-0.299,0.92,0.045,1.443,0.702,1.856c1.17,0.736,2.334,1.483,3.49,2.241c0.691,0.454,1.213,1.055,1.395,1.885
				c0.333,1.527-0.304,2.734-1.774,3.338c-0.4,0.165-0.827,0.319-1.252,0.357c-1.445,0.126-2.891,0.122-4.376-0.144
				c0.035-0.6,0.064-1.098,0.095-1.628c1.802-0.118,3.668,0.614,5.321-0.613c0.024-0.371,0.044-0.69,0.069-1.066
				c-0.303-0.263-0.577-0.556-0.902-0.772c-1.092-0.725-2.211-1.408-3.301-2.135c-0.998-0.665-1.608-1.545-1.546-2.821
				c0.059-1.211,0.539-2.043,1.684-2.406c0.752-0.239,1.564-0.368,2.353-0.389C78.785,45.95,79.727,46.095,80.818,46.178z"/>
			<path fill="#060606" d="M175.074,46.114c-0.036,0.687-0.062,1.186-0.091,1.747c-0.963-0.051-1.862-0.128-2.761-0.136
				c-0.467-0.004-0.952,0.056-1.4,0.186c-0.83,0.242-1.07,1.034-0.525,1.709c0.223,0.276,0.539,0.487,0.84,0.686
				c1.094,0.722,2.209,1.413,3.3,2.14c0.762,0.508,1.257,1.208,1.352,2.148c0.158,1.554-0.636,2.701-2.244,3.164
				c-1.69,0.487-3.394,0.229-5.115,0.1c0-0.605,0-1.129,0-1.6c1.083,0,2.095,0.017,3.105-0.008c0.432-0.01,0.87-0.073,1.292-0.171
				c0.481-0.112,0.889-0.366,0.992-0.901c0.11-0.575-0.171-0.983-0.633-1.282c-0.856-0.554-1.721-1.095-2.576-1.651
				c-0.458-0.298-0.917-0.597-1.352-0.927c-1.125-0.853-1.405-2.032-1.086-3.326c0.301-1.219,1.282-1.779,2.44-1.856
				C172.053,46.041,173.505,46.114,175.074,46.114z"/>
			<path fill="#040404" d="M75.811-6.121c0.585,0,1.117,0,1.722,0c0,1.019,0,1.993,0,3.06c1.182,0,2.294,0,3.465,0
				c0,0.621,0,1.149,0,1.772c-1.118,0-2.231,0-3.326,0c-0.343,2.215-0.176,7.316,0.272,8.107c0.965,0.467,1.974-0.036,3.05,0.026
				c0,0.474,0,0.967,0,1.564c-1.172,0.374-2.424,0.469-3.681,0.194c-1.054-0.23-1.613-1.036-1.627-2.293
				c-0.024-2.081-0.007-4.162-0.007-6.243c0-0.398,0-0.795,0-1.284c-0.579-0.026-1.113-0.05-1.735-0.078c0-0.454,0-0.902,0-1.428
				c0.518-0.107,1.076-0.222,1.695-0.35C75.695-4.077,75.752-5.081,75.811-6.121z"/>
			<path fill="#050505" d="M140.397,23.281c-1.025-0.062-1.894-0.162-2.763-0.156c-1.487,0.01-2.472,0.8-2.842,2.237
				c-0.361,1.404-0.334,2.822,0.021,4.22c0.332,1.309,1.229,2.018,2.622,2.03c0.976,0.009,1.953-0.109,3.01-0.175
				c0,0.541,0,1.07,0,1.668c-1.507,0.352-3.048,0.473-4.594,0.086c-1.41-0.354-2.38-1.23-2.824-2.625
				c-0.637-1.999-0.627-4.028-0.089-6.035c0.534-1.991,1.885-2.999,4.088-3.152c0.58-0.04,1.167-0.029,1.748,0.008
				c0.54,0.035,1.075,0.136,1.623,0.209C140.397,22.165,140.397,22.694,140.397,23.281z"/>
			<path fill="#060606" d="M125.326,6.828c0,0.513,0,1.047,0,1.651c-1.627,0.306-3.244,0.465-4.864-0.003
				c-1.97-0.57-2.768-2.109-2.925-3.946c-0.123-1.436-0.066-2.927,0.178-4.347c0.363-2.116,1.824-3.283,3.97-3.395
				c1.193-0.062,2.402-0.146,3.647,0.255c-0.042,0.553-0.082,1.082-0.112,1.477c-1.043,0-1.985-0.021-2.925,0.005
				c-1.301,0.035-2.22,0.707-2.596,1.957c-0.463,1.539-0.445,3.107,0.003,4.643c0.314,1.075,1.07,1.765,2.222,1.803
				C123.013,6.962,124.105,6.869,125.326,6.828z"/>
			<path fill="#050505" d="M50.353,31.39c0,0.65,0,1.15,0,1.709c-1.558,0.36-3.1,0.482-4.643,0.088
				c-1.407-0.359-2.374-1.242-2.807-2.643c-0.619-2-0.627-4.025-0.073-6.033c0.544-1.968,1.821-2.948,3.985-3.124
				c0.615-0.05,1.24-0.035,1.857,0.003c0.537,0.032,1.07,0.138,1.605,0.211c0,0.584,0,1.114,0,1.687
				c-0.902-0.062-1.727-0.159-2.554-0.166c-1.75-0.015-2.695,0.758-3.097,2.459c-0.308,1.303-0.273,2.608,0.039,3.9
				c0.338,1.402,1.199,2.091,2.649,2.137c0.507,0.016,1.017-0.035,1.525-0.073C49.305,31.51,49.77,31.451,50.353,31.39z"/>
			<path fill="#050505" d="M87.911,23.275c-1.031-0.06-1.902-0.158-2.772-0.15c-1.413,0.013-2.36,0.71-2.755,2.059
				c-0.418,1.427-0.406,2.89-0.042,4.325c0.367,1.446,1.181,2.066,2.666,2.109c0.508,0.015,1.019-0.035,1.528-0.074
				c0.463-0.035,0.925-0.094,1.468-0.151c0,0.627,0,1.154,0,1.719c-1.305,0.276-2.6,0.427-3.909,0.221
				c-2.188-0.344-3.278-1.361-3.747-3.545c-0.349-1.623-0.345-3.265,0.02-4.885c0.498-2.208,1.783-3.324,4.018-3.514
				c0.652-0.055,1.314-0.037,1.969-0.001c0.506,0.028,1.007,0.135,1.556,0.214C87.911,22.178,87.911,22.712,87.911,23.275z"/>
			<path fill="#050505" d="M120.285,55.992c0,0.591,0,1.093,0,1.753c-1.91,0.343-3.862,0.607-5.75-0.375
				c-1.08-0.562-1.599-1.565-1.881-2.694c-0.376-1.508-0.385-3.049-0.143-4.567c0.424-2.657,1.651-3.821,4.332-4.068
				c1.1-0.101,2.224,0.057,3.445,0.101c-0.04,0.677-0.069,1.17-0.106,1.786c-0.693-0.061-1.331-0.111-1.967-0.174
				c-2.133-0.212-3.44,0.66-3.718,2.757c-0.159,1.203-0.061,2.476,0.138,3.681c0.22,1.33,1.114,1.97,2.466,2.049
				c0.508,0.03,1.022,0.012,1.53-0.028C119.139,56.174,119.643,56.08,120.285,55.992z"/>
			<path fill="#0E0E0E" d="M180.675,33.142c-0.66,0-1.203,0-1.803,0c0-5.751,0-11.472,0-17.233c0.584,0,1.16,0,1.803,0
				C180.675,21.634,180.675,27.348,180.675,33.142z"/>
			<path fill="#0C0C0C" d="M107.515,57.765c-0.726,0-1.295,0-1.904,0c0-3.821,0-7.6,0-11.455c0.426,0,0.842,0,1.344,0
				c0.088,0.254,0.191,0.555,0.339,0.982c1.111-1.139,2.452-1.483,3.98-1.172c0,0.575,0,1.111,0,1.733
				c-1.464-0.067-2.793,0.157-3.759,1.499C107.515,52.075,107.515,54.876,107.515,57.765z"/>
			<path fill="#0F0F0F" d="M151.067,49.425c0,2.756,0,5.49,0,8.304c-0.614,0-1.207,0-1.869,0c0-3.763,0-7.537,0-11.405
				c0.418,0,0.863,0,1.365,0c0.093,0.266,0.198,0.568,0.328,0.94c1.122-1.084,2.426-1.452,3.978-1.151c0,0.553,0,1.08,0,1.712
				C153.394,47.821,152.007,48.007,151.067,49.425z"/>
			<path fill="#0D0D0D" d="M66.908-2.985c0.458,0,0.884,0,1.32,0c0.114,0.316,0.22,0.609,0.353,0.978
				c1.159-1.123,2.473-1.441,3.972-1.148c0,0.572,0,1.102,0,1.707c-1.486-0.062-2.802,0.217-3.796,1.553c0,2.694,0,5.496,0,8.368
				c-0.639,0-1.205,0-1.849,0C66.908,4.665,66.908,0.862,66.908-2.985z"/>
			<path fill="#070707" d="M52.881,21.61c0.621,0,1.191,0,1.812,0c0,3.839,0,7.643,0,11.502c-0.596,0-1.162,0-1.812,0
				C52.881,29.316,52.881,25.516,52.881,21.61z"/>
			<path fill="#090909" d="M112.933,8.479c0-3.829,0-7.604,0-11.442c0.604,0,1.174,0,1.823,0c0,3.764,0,7.572,0,11.442
				C114.179,8.479,113.579,8.479,112.933,8.479z"/>
			<path fill="#070707" d="M104.231,30.589c0.448,2.198-0.638,3.871-1.585,5.634c-0.504,0-1.005,0-1.59,0
				c0.466-1.849,1.418-3.597,0.834-5.634C102.784,30.589,103.494,30.589,104.231,30.589z"/>
			<path fill="#0F0F0F" d="M114.795-5.741c-0.648,0-1.26,0-1.93,0c0-0.817,0-1.603,0-2.434c0.629,0,1.237,0,1.93,0
				C114.795-7.409,114.795-6.636,114.795-5.741z"/>
			<path d="M54.73,18.902c-0.697,0-1.302,0-1.952,0c0-0.788,0-1.533,0-2.342c0.644,0,1.273,0,1.952,0
				C54.73,17.333,54.73,18.08,54.73,18.902z"/>
		</g>
		<g>
			<path fill="#010101" d="M-49.427,24.489c0-4.399-0.037-8.799,0.011-13.198c0.043-3.903,1.771-6.919,5.143-8.885
				c7.706-4.493,15.441-8.935,23.171-13.385c0.94-0.541,1.909-1.042,2.894-1.496c1.254-0.578,2.563-0.6,3.792,0.028
				c1.807,0.922,3.587,1.9,5.346,2.911C-2.186-5.579,4.696-1.617,11.556,2.382c3.411,1.989,5.178,5.024,5.197,8.966
				c0.042,8.835,0.056,17.671-0.008,26.505c-0.027,3.674-1.67,6.646-4.832,8.509c-8.184,4.823-16.442,9.52-24.672,14.264
				c-0.408,0.235-0.832,0.443-1.254,0.653c-1.57,0.78-3.152,0.803-4.695-0.037c-2.037-1.108-4.06-2.244-6.07-3.401
				c-6.442-3.708-12.882-7.42-19.31-11.151c-3.529-2.048-5.323-5.133-5.336-9.222C-49.438,33.142-49.427,28.815-49.427,24.489z
				 M-16.123,48.18c0.424-0.164,0.634-0.216,0.814-0.319c4.49-2.591,9.066-5.048,13.44-7.821c4.59-2.91,6.884-7.249,6.388-12.732
				c-0.55-6.093-6.025-10.883-12.158-10.893c-2.18-0.004-4.36,0.026-6.541,0.033c-2.149,0.006-2.149,0.001-2.15-2.102
				c0-0.784,0-1.569,0-2.538c-0.497,0.259-0.815,0.41-1.12,0.585c-1.916,1.103-3.829,2.212-5.743,3.319
				c-0.942,0.545-1.908,1.051-2.818,1.645c-1.416,0.923-1.857,2.636-1.076,3.991c0.631,1.094,1.659,1.467,2.847,1.466
				c4.651-0.003,9.303-0.022,13.954-0.036c1.017-0.003,2.037-0.065,3.05-0.003c2.847,0.174,5.318,2.749,5.369,5.598
				c0.053,2.978-1.383,5.11-3.896,6.573c-3.069,1.787-6.143,3.566-9.232,5.319c-0.917,0.521-1.367,1.23-1.344,2.291
				c0.031,1.453-0.004,2.908,0.016,4.361C-16.316,47.29-16.208,47.662-16.123,48.18z M-16.573,0.802
				c-0.389,0.151-0.565,0.194-0.715,0.281c-4.521,2.606-9.101,5.117-13.539,7.857c-3.914,2.416-6.094,6.078-6.431,10.68
				c-0.486,6.633,5.132,13.064,12.337,12.944c1.562-0.026,3.125-0.004,4.688-0.004c1.122,0,2.244,0,3.455,0
				c0.842,1.417,0.125,3,0.54,4.494c0.327-0.143,0.598-0.233,0.84-0.372c2.797-1.606,5.592-3.214,8.379-4.836
				c0.341-0.198,0.673-0.443,0.94-0.73c1.528-1.646,0.975-4.055-1.101-4.758c-0.433-0.147-0.927-0.155-1.394-0.156
				c-4.179-0.011-8.358-0.009-12.537-0.005c-1.38,0.001-2.763,0.067-4.141,0.019c-3.026-0.106-5.541-2.73-5.549-5.747
				c-0.008-2.89,1.39-4.97,3.817-6.393c3.094-1.814,6.208-3.593,9.327-5.364c0.876-0.497,1.321-1.173,1.3-2.197
				c-0.031-1.526,0.003-3.052-0.017-4.578C-16.377,1.6-16.488,1.266-16.573,0.802z"/>
			<path fill="#F3F3F3" d="M-16.123,48.18c-0.084-0.518-0.192-0.891-0.198-1.264c-0.02-1.454,0.015-2.908-0.016-4.361
				c-0.023-1.061,0.427-1.77,1.344-2.291c3.089-1.753,6.163-3.532,9.232-5.319c2.513-1.463,3.95-3.595,3.896-6.573
				c-0.051-2.848-2.522-5.424-5.369-5.598c-1.013-0.062-2.033,0-3.05,0.003c-4.651,0.014-9.303,0.033-13.954,0.036
				c-1.188,0.001-2.216-0.372-2.847-1.466c-0.781-1.354-0.34-3.067,1.076-3.991c0.91-0.593,1.877-1.1,2.818-1.645
				c1.914-1.107,3.827-2.216,5.743-3.319c0.304-0.175,0.622-0.326,1.12-0.585c0,0.969,0,1.753,0,2.538c0,2.103,0,2.108,2.15,2.102
				c2.18-0.006,4.36-0.036,6.541-0.033c6.133,0.01,11.607,4.801,12.158,10.893c0.495,5.483-1.799,9.822-6.388,12.732
				c-4.375,2.774-8.95,5.23-13.44,7.821C-15.489,47.965-15.699,48.016-16.123,48.18z"/>
			<path fill="#F3F3F3" d="M-16.573,0.802c0.085,0.464,0.195,0.798,0.199,1.134c0.019,1.526-0.015,3.053,0.017,4.578
				c0.021,1.024-0.424,1.7-1.3,2.197c-3.119,1.771-6.234,3.55-9.327,5.364c-2.428,1.424-3.825,3.503-3.817,6.393
				c0.008,3.018,2.523,5.641,5.549,5.747c1.378,0.048,2.76-0.018,4.141-0.019c4.179-0.004,8.358-0.006,12.537,0.005
				c0.466,0.001,0.96,0.01,1.394,0.156c2.077,0.702,2.629,3.112,1.101,4.758c-0.267,0.287-0.599,0.532-0.94,0.73
				c-2.787,1.622-5.583,3.23-8.379,4.836c-0.242,0.139-0.513,0.229-0.84,0.372c-0.415-1.494,0.301-3.077-0.54-4.494
				c-1.211,0-2.333,0-3.455,0c-1.563,0-3.126-0.022-4.688,0.004c-7.205,0.119-12.822-6.311-12.337-12.944
				c0.337-4.602,2.517-8.264,6.431-10.68c4.438-2.74,9.018-5.25,13.539-7.857C-17.137,0.996-16.962,0.953-16.573,0.802z"/>
		</g>
	</g>
</g>
</svg>
