<?xml version="1.0" encoding="utf-8"?>
<!-- Generator: Adobe Illustrator 17.0.0, SVG Export Plug-In . SVG Version: 6.00 Build 0)  -->
<!DOCTYPE svg PUBLIC "-//W3C//DTD SVG 1.1//EN" "http://www.w3.org/Graphics/SVG/1.1/DTD/svg11.dtd">
<svg version="1.1" id="Layer_1" xmlns="http://www.w3.org/2000/svg" xmlns:xlink="http://www.w3.org/1999/xlink" x="0px" y="0px"
	 width="185px" height="35px" viewBox="0 0 185 35" enable-background="new 0 0 185 35" xml:space="preserve">
<g>
	<g>
		<defs>
			<rect id="SVGID_1_" x="0.5" width="184" height="35"/>
		</defs>
		<clipPath id="SVGID_2_">
			<use xlink:href="#SVGID_1_"  overflow="visible"/>
		</clipPath>
		<g id="gNJSbI.tif" clip-path="url(#SVGID_2_)">
			<g>
				<path fill="#FDFBFA" d="M114.177,9.981c-0.274-0.473-0.092-1.072-0.401-1.531c-1.334,0-2.646,0-3.989,0
					c-1.367,6.089-2.36,12.217-3.44,18.371c1.097,0,2.082,0,3.109,0c0.238-1.349,0.47-2.658,0.709-4.016
					c1.161-0.005,2.259-0.053,3.361,0.029c0.042,0.204,0.069,0.335,0.097,0.466c0.247,1.168,0.305,2.373,0.685,3.516
					c0.133,0.022,0.266,0.063,0.399,0.063c2.591,0.001,5.183-0.001,7.774-0.005c0.155,0,0.323,0.028,0.424-0.112
					c0-0.82,0-1.625,0-2.509c-1.835,0-3.616,0-5.405,0c0-1.913,0-3.745,0-5.669c1.292,0,2.551,0,3.821,0c0-0.894,0-1.694,0-2.568
					c-1.298,0-2.538,0-3.812,0c0-1.719,0-3.363,0-5.092c1.825,0,3.607,0,5.41,0c0-0.868,0-1.651,0-2.451c-2.884,0-5.727,0-8.531,0
					C114.196,9.005,114.486,9.529,114.177,9.981z M90.074,19.241c0.634,2.53,1.271,5.071,1.896,7.565c1.147,0,2.196,0,3.331,0
					c-0.784-2.851-1.546-5.621-2.312-8.405c1.101-0.745,1.722-1.746,1.912-2.996c0.181-1.197,0.182-2.394-0.068-3.59
					c-0.382-1.822-1.448-2.917-3.297-3.262c-0.633-0.118-1.263-0.135-1.898-0.138c-1.426-0.005-2.852-0.002-4.317-0.002
					c0,6.175,0,12.275,0,18.403c1.047,0,2.052,0,3.138,0c0-2.562,0-5.073,0-7.637C89.032,19.195,89.524,19.119,90.074,19.241z
					 M48.684,18.406c1.275-0.663,1.83-1.67,2.054-2.881c0.199-1.079,0.189-2.162,0.04-3.254c-0.324-2.385-1.59-3.495-3.872-3.781
					c-1.841-0.23-3.719-0.098-5.581-0.04c-0.035,0.001-0.068,0.053-0.088,0.07c0,6.109,0,12.205,0,18.301c1.049,0,2.037,0,3.105,0
					c0-2.556,0-5.066,0-7.588c0.572-0.081,1.061-0.099,1.603,0.019c0.631,2.521,1.263,5.043,1.892,7.556c1.137,0,2.206,0,3.346,0
					C50.345,23.971,49.729,21.153,48.684,18.406z M169.946,8.442c0,0.326,0,0.573,0,0.82c-0.001,3.864,0.004,7.729-0.008,11.593
					c-0.002,0.749-0.03,1.503-0.123,2.245c-0.119,0.957-0.707,1.433-1.668,1.455c-0.846,0.019-1.425-0.455-1.629-1.342
					c-0.139-0.604-0.122-1.221-0.123-1.833c-0.008-4.046-0.005-8.093-0.014-12.139c-0.001-0.262,0.086-0.544-0.089-0.776
					c-1.025,0-2.033,0-3.097,0c0,0.232,0,0.41,0,0.589c0.001,4.046-0.004,8.093,0.01,12.139c0.003,0.726,0.059,1.454,0.141,2.176
					c0.145,1.271,0.753,2.311,1.84,2.967c1.153,0.695,2.442,0.959,3.798,0.775c1.794-0.244,3.897-1.79,4.005-3.937
					c0.029-0.567,0.103-1.133,0.105-1.699c0.011-4.16,0.01-8.32,0.01-12.48c0-0.175,0.051-0.366-0.118-0.552
					C172.023,8.442,171.033,8.442,169.946,8.442z M156.745,19.202c0.644,2.576,1.276,5.102,1.907,7.626c1.137,0,2.195,0,3.339,0
					c-0.781-2.838-1.544-5.613-2.316-8.421c0.885-0.627,1.547-1.4,1.782-2.443c0.354-1.576,0.367-3.162-0.094-4.72
					c-0.365-1.233-1.164-2.102-2.401-2.501c-0.624-0.202-1.274-0.326-1.941-0.325c-1.478,0.003-2.955-0.006-4.433-0.006
					c-0.2,0-0.412-0.03-0.567,0.123c0,1.045,0,2.076,0,3.176c0.448-0.129,0.832-0.24,1.201-0.346
					c0.092-0.419,0.126-0.756-0.167-1.068c-0.206-0.22-0.141-0.471,0.087-0.654c0.222-0.177,0.469-0.174,0.688,0.006
					c0.226,0.186,0.275,0.426,0.077,0.657c-0.274,0.32-0.207,0.665-0.141,1.069c0.478,0.078,0.925,0.228,1.313,0.452
					c0.693-0.306,1.157-0.835,1.661-1.298c0.012-0.204-0.012-0.395,0.041-0.562c0.135-0.427,0.459-0.626,0.894-0.554
					c0.397,0.066,0.672,0.315,0.647,0.747c-0.025,0.432-0.296,0.645-0.728,0.643c-0.206-0.001-0.403-0.002-0.571,0.157
					c-0.441,0.421-0.891,0.832-1.368,1.276c0.336,0.394,0.412,0.876,0.626,1.282c0.419,0.06,0.784,0.103,1.128-0.18
					c0.241-0.198,0.519-0.145,0.726,0.101c0.146,0.174,0.168,0.374,0.025,0.563c-0.199,0.263-0.501,0.304-0.727,0.133
					c-0.376-0.285-0.759-0.228-1.186-0.178c-0.162,0.419-0.31,0.845-0.595,1.226c0.298,0.284,0.564,0.565,0.858,0.811
					c0.285,0.238,0.51,0.558,0.974,0.54c0.461-0.018,0.79,0.245,0.793,0.745c0.002,0.444-0.313,0.663-0.708,0.68
					c-0.486,0.021-0.849-0.196-0.847-0.749c0.001-0.231-0.09-0.385-0.245-0.532c-0.443-0.416-0.87-0.851-1.468-1.114
					c-0.352,0.31-0.83,0.336-1.26,0.56c0.032,0.33-0.123,0.664,0.176,0.963c0.202,0.202,0.199,0.474-0.018,0.667
					c-0.227,0.202-0.518,0.199-0.751,0.012c-0.229-0.184-0.236-0.458-0.047-0.667c0.292-0.322,0.207-0.659,0.143-1.085
					c-0.44,0.045-0.769-0.342-1.228-0.258c0,3.699,0,7.367,0,11.056c1.057,0,2.063,0,3.146,0c0-2.57,0-5.081,0-7.601
					C155.719,19.146,156.19,19.154,156.745,19.202z M55.592,8.438c-1.192,6.15-2.134,12.278-3.389,18.383c1.011,0,2.018,0,3.037,0
					c0.298-1.352,0.586-2.66,0.879-3.99c1.149,0,2.229,0,3.362,0c0.243,1.351,0.482,2.68,0.717,3.983c1.114,0,2.142,0,3.255,0
					c-1.321-6.15-2.511-12.253-3.64-18.376C58.373,8.438,57.014,8.438,55.592,8.438z M140.806,19.449
					c-0.847-3.653-1.437-7.358-2.458-10.974c-1.04,0-2.083,0-3.195,0c1.695,6.095,2.494,12.311,4.161,18.343
					c1.121,0,2.196,0,3.293,0c1.217-6.132,2.202-12.258,3.612-18.367c-1.111,0-2.101,0-3.137,0
					c-0.373,1.829-0.687,3.665-1.131,5.469C141.501,15.743,141.28,17.606,140.806,19.449z M174.303,22.164
					c0.063,1.925,0.559,2.897,1.965,3.994c1.811,1.414,4.865,1.287,6.636-0.075c1.989-1.531,2.004-5.088,0.678-6.77
					c-0.564-0.716-1.209-1.33-1.921-1.901c-1.059-0.848-2.051-1.779-3.088-2.656c-0.733-0.62-1.147-1.919-0.873-2.862
					c0.244-0.84,0.776-1.18,1.827-1.165c0.861,0.012,1.265,0.339,1.499,1.193c0.088,0.323,0.065,0.676,0.268,1.013
					c0.977-0.128,1.965-0.181,2.919-0.407c0.021-1.741-0.964-3.294-2.449-3.967c-0.945-0.428-1.933-0.435-2.939-0.392
					c-1.552,0.066-2.71,0.871-3.609,2.027c-0.949,1.22-0.927,3.896,0.016,5.12c0.701,0.911,1.46,1.781,2.319,2.564
					c0.871,0.795,1.925,1.356,2.719,2.248c0.655,0.736,1.163,1.517,1.139,2.54c-0.022,0.935-0.555,1.657-1.33,1.847
					c-1.209,0.296-2.246-0.291-2.59-1.491c-0.117-0.41-0.172-0.838-0.267-1.314C176.245,21.862,175.291,22.01,174.303,22.164z
					 M73.891,12.547c-0.144-1.285-0.467-2.4-1.332-3.193c-1.383-1.268-3.078-1.424-4.853-1.075
					c-0.891,0.175-1.687,0.592-2.316,1.206c-1.021,0.996-1.352,2.288-1.216,3.687c0.134,1.381,0.713,2.518,1.756,3.485
					c1.079,0.999,2.129,2.012,3.318,2.892c0.899,0.665,1.605,1.544,1.77,2.732c0.185,1.338-0.625,2.287-1.953,2.276
					c-1.195-0.01-1.877-0.688-2.091-2.069c-0.04-0.258,0.031-0.554-0.236-0.77c-0.939,0.172-1.911,0.216-2.853,0.515
					c0.05,0.953,0.253,1.802,0.7,2.584c1.189,2.076,4.402,2.988,6.743,1.901c0.634-0.294,1.272-0.607,1.734-1.161
					c1.145-1.375,1.386-3.873,0.589-5.482c-0.404-0.815-1.028-1.418-1.685-2.005c-1.013-0.905-2.011-1.824-3.086-2.663
					c-1.007-0.786-1.79-1.76-1.634-3.18c0.089-0.808,0.622-1.4,1.349-1.48c1.236-0.136,1.71,0.119,2.015,1.11
					c0.105,0.341,0.169,0.694,0.264,1.093C71.886,12.814,72.864,12.684,73.891,12.547z M105.164,8.467c-2.858,0-5.638,0-8.417,0
					c0,6.152,0,12.25,0,18.351c2.833,0,5.613,0,8.404,0c0-0.86,0-1.666,0-2.552c-1.776,0-3.512,0-5.256,0c0-1.93,0-3.778,0-5.706
					c1.281,0,2.519,0,3.787,0c0-0.861,0-1.643,0-2.507c-1.276,0-2.512,0-3.78,0c0-1.744,0-3.406,0-5.155c1.785,0,3.519,0,5.262,0
					C105.164,10.044,105.164,9.279,105.164,8.467z M77.815,10.943c0,5.36,0,10.621,0,15.88c1.092,0,2.102,0,3.194,0
					c0-5.307,0-10.565,0-15.9c1.16,0,2.239,0,3.352,0c0-0.861,0-1.644,0-2.468c-3.298,0-6.556,0-9.841,0c0,0.833,0,1.633,0,2.489
					C75.609,10.943,76.647,10.943,77.815,10.943z M127.292,24.277c0-5.333,0-10.565,0-15.823c-1.08,0-2.086,0-3.099,0
					c0,6.159,0,12.271,0,18.377c2.821,0,5.581,0,8.36,0c0-0.867,0-1.688,0-2.553C130.8,24.277,129.102,24.277,127.292,24.277z
					 M147.334,8.441c0,6.178,0,12.277,0,18.376c1.039,0,2.023,0,2.995,0c0-6.157,0-12.257,0-18.376
					C149.307,8.441,148.339,8.441,147.334,8.441z"/>
				<path fill="#7F8182" d="M90.074,19.241c-0.55-0.122-1.042-0.046-1.615-0.061c0,2.565,0,5.075,0,7.637c-1.085,0-2.091,0-3.138,0
					c0-6.128,0-12.228,0-18.403c1.465,0,2.891-0.004,4.317,0.002c0.635,0.002,1.265,0.02,1.898,0.138
					c1.849,0.344,2.915,1.44,3.297,3.262c0.25,1.195,0.25,2.393,0.068,3.59c-0.189,1.25-0.811,2.251-1.912,2.996
					c0.766,2.783,1.528,5.553,2.312,8.405c-1.135,0-2.185,0-3.331,0C91.345,24.313,90.708,21.772,90.074,19.241z M88.486,16.527
					c0.737,0.088,1.431,0.105,2.121-0.058c0.428-0.101,0.734-0.36,0.89-0.77c0.469-1.235,0.503-2.484,0.052-3.727
					c-0.168-0.464-0.492-0.817-1.003-0.936c-0.669-0.155-1.341-0.129-2.06-0.056C88.486,12.843,88.486,14.668,88.486,16.527z"/>
				<path fill="#7F8182" d="M48.684,18.406c1.045,2.748,1.661,5.565,2.499,8.403c-1.14,0-2.21,0-3.346,0
					c-0.629-2.513-1.261-5.036-1.892-7.556c-0.542-0.118-1.031-0.099-1.603-0.019c0,2.522,0,5.031,0,7.588c-1.068,0-2.056,0-3.105,0
					c0-6.095,0-12.192,0-18.301c0.02-0.017,0.053-0.069,0.088-0.07c1.862-0.058,3.74-0.19,5.581,0.04
					c2.282,0.286,3.548,1.396,3.872,3.781c0.148,1.092,0.159,2.175-0.04,3.254C50.514,16.736,49.959,17.743,48.684,18.406z
					 M44.375,16.531c0.626,0.084,1.227,0.07,1.832-0.01c0.658-0.088,1.056-0.455,1.262-1.075c0.247-0.745,0.325-1.508,0.234-2.281
					c-0.211-1.792-0.728-2.235-2.557-2.23c-0.243,0.001-0.497-0.059-0.772,0.089C44.375,12.832,44.375,14.654,44.375,16.531z"/>
				<path fill="#FE6326" d="M169.946,8.442c1.087,0,2.077,0,3.04,0c0.169,0.186,0.118,0.377,0.118,0.552
					c0.001,4.16,0.002,8.32-0.01,12.48c-0.002,0.566-0.076,1.132-0.105,1.699c-0.108,2.147-2.21,3.693-4.005,3.937
					c-1.356,0.184-2.645-0.079-3.798-0.775c-1.087-0.656-1.696-1.697-1.84-2.967c-0.082-0.721-0.138-1.45-0.141-2.176
					c-0.014-4.046-0.009-8.093-0.01-12.139c0-0.179,0-0.357,0-0.589c1.064,0,2.072,0,3.097,0c0.175,0.232,0.088,0.515,0.089,0.776
					c0.008,4.046,0.006,8.093,0.014,12.139c0.001,0.613-0.015,1.23,0.123,1.833c0.204,0.887,0.783,1.361,1.629,1.342
					c0.961-0.022,1.549-0.498,1.668-1.455c0.092-0.742,0.12-1.496,0.123-2.245c0.012-3.864,0.007-7.729,0.008-11.593
					C169.946,9.016,169.946,8.769,169.946,8.442z"/>
				<path fill="#FE6326" d="M156.745,19.202c-0.556-0.048-1.026-0.056-1.576,0.008c0,2.521,0,5.031,0,7.601
					c-1.083,0-2.089,0-3.146,0c0-3.689,0-7.357,0-11.056c0.46-0.084,0.788,0.303,1.228,0.258c0.065,0.426,0.15,0.763-0.143,1.085
					c-0.189,0.208-0.183,0.483,0.047,0.667c0.234,0.187,0.524,0.19,0.751-0.012c0.218-0.194,0.221-0.465,0.018-0.667
					c-0.299-0.299-0.144-0.633-0.176-0.963c0.431-0.225,0.909-0.251,1.26-0.56c0.599,0.263,1.026,0.698,1.468,1.114
					c0.156,0.146,0.246,0.301,0.245,0.532c-0.002,0.553,0.361,0.77,0.847,0.749c0.395-0.017,0.71-0.235,0.708-0.68
					c-0.003-0.5-0.331-0.762-0.793-0.745c-0.464,0.018-0.688-0.302-0.974-0.54c-0.295-0.246-0.56-0.526-0.858-0.811
					c0.285-0.38,0.433-0.806,0.595-1.226c0.427-0.049,0.81-0.106,1.186,0.178c0.226,0.171,0.528,0.13,0.727-0.133
					c0.143-0.189,0.122-0.389-0.025-0.563c-0.207-0.246-0.485-0.299-0.726-0.101c-0.344,0.283-0.709,0.24-1.128,0.18
					c-0.215-0.406-0.291-0.888-0.626-1.282c0.478-0.444,0.927-0.856,1.368-1.276c0.167-0.16,0.365-0.159,0.571-0.157
					c0.432,0.003,0.703-0.211,0.728-0.643c0.025-0.432-0.251-0.681-0.647-0.747c-0.435-0.073-0.759,0.126-0.894,0.554
					c-0.053,0.167-0.029,0.357-0.041,0.562c-0.505,0.462-0.968,0.992-1.661,1.298c-0.388-0.224-0.835-0.374-1.313-0.452
					c-0.066-0.404-0.133-0.748,0.141-1.069c0.198-0.232,0.148-0.471-0.077-0.657c-0.219-0.18-0.466-0.183-0.688-0.006
					c-0.228,0.182-0.293,0.434-0.087,0.654c0.293,0.313,0.259,0.65,0.167,1.068c-0.37,0.106-0.753,0.217-1.201,0.346
					c0-1.1,0-2.132,0-3.176c0.155-0.154,0.367-0.124,0.567-0.123c1.478,0,2.955,0.01,4.433,0.006
					c0.667-0.002,1.316,0.123,1.941,0.325c1.237,0.399,2.036,1.268,2.401,2.501c0.462,1.559,0.449,3.144,0.094,4.72
					c-0.235,1.044-0.897,1.817-1.782,2.443c0.772,2.808,1.535,5.583,2.316,8.421c-1.144,0-2.202,0-3.339,0
					C158.021,24.304,157.389,21.778,156.745,19.202z"/>
				<path fill="#7F8182" d="M55.592,8.438c1.422,0,2.781,0,4.22,0c1.129,6.123,2.319,12.226,3.64,18.376c-1.113,0-2.141,0-3.255,0
					c-0.234-1.303-0.474-2.632-0.717-3.983c-1.133,0-2.213,0-3.362,0c-0.293,1.33-0.581,2.638-0.879,3.99c-1.019,0-2.025,0-3.037,0
					C53.458,20.716,54.4,14.588,55.592,8.438z M58.882,20.15c-0.324-1.989-0.635-3.912-0.955-5.833
					c-0.034-0.203-0.053-0.449-0.406-0.517c-0.321,2.114-0.638,4.204-0.964,6.35C57.367,20.15,58.081,20.15,58.882,20.15z"/>
				<path fill="#FE6326" d="M140.806,19.449c0.474-1.843,0.696-3.706,1.144-5.529c0.444-1.804,0.758-3.64,1.131-5.469
					c1.036,0,2.026,0,3.137,0c-1.41,6.109-2.394,12.235-3.612,18.367c-1.097,0-2.172,0-3.293,0
					c-1.667-6.032-2.466-12.248-4.161-18.343c1.112,0,2.155,0,3.195,0C139.369,12.091,139.959,15.796,140.806,19.449z"/>
				<path fill="#FE6326" d="M174.303,22.164c0.988-0.154,1.942-0.302,2.918-0.454c0.095,0.477,0.15,0.904,0.267,1.314
					c0.343,1.2,1.381,1.787,2.59,1.491c0.775-0.19,1.309-0.912,1.33-1.847c0.024-1.023-0.484-1.804-1.139-2.54
					c-0.794-0.891-1.848-1.453-2.719-2.248c-0.858-0.783-1.617-1.653-2.319-2.564c-0.943-1.225-0.964-3.901-0.016-5.12
					c0.899-1.156,2.057-1.96,3.609-2.027c1.006-0.043,1.995-0.036,2.939,0.392c1.486,0.672,2.47,2.226,2.449,3.967
					c-0.954,0.226-1.942,0.279-2.919,0.407c-0.203-0.337-0.18-0.69-0.268-1.013c-0.234-0.854-0.637-1.181-1.499-1.193
					c-1.051-0.015-1.583,0.325-1.827,1.165c-0.274,0.943,0.141,2.242,0.873,2.862c1.037,0.877,2.029,1.808,3.088,2.656
					c0.712,0.57,1.357,1.185,1.921,1.901c1.325,1.682,1.311,5.239-0.678,6.77c-1.771,1.363-4.825,1.489-6.636,0.075
					C174.862,25.061,174.366,24.089,174.303,22.164z"/>
				<path fill="#7F8182" d="M73.891,12.547c-1.027,0.137-2.005,0.267-3.018,0.402c-0.095-0.398-0.159-0.752-0.264-1.093
					c-0.305-0.991-0.779-1.246-2.015-1.11c-0.727,0.08-1.261,0.672-1.349,1.48c-0.156,1.421,0.627,2.395,1.634,3.18
					c1.075,0.839,2.072,1.758,3.086,2.663c0.657,0.586,1.281,1.19,1.685,2.005c0.797,1.609,0.555,4.107-0.589,5.482
					c-0.461,0.554-1.1,0.867-1.734,1.161c-2.341,1.087-5.554,0.175-6.743-1.901c-0.448-0.781-0.651-1.631-0.7-2.584
					c0.942-0.299,1.915-0.343,2.853-0.515c0.267,0.217,0.196,0.512,0.236,0.77c0.214,1.381,0.896,2.059,2.091,2.069
					c1.328,0.011,2.139-0.939,1.953-2.276c-0.165-1.188-0.871-2.067-1.77-2.732c-1.189-0.88-2.239-1.893-3.318-2.892
					c-1.043-0.966-1.622-2.104-1.756-3.485c-0.136-1.4,0.195-2.692,1.216-3.687c0.63-0.614,1.426-1.031,2.316-1.206
					c1.775-0.349,3.471-0.193,4.853,1.075C73.424,10.147,73.747,11.262,73.891,12.547z"/>
				<path fill="#FE6326" d="M114.177,9.981c0.309-0.452,0.019-0.976,0.212-1.509c2.804,0,5.647,0,8.531,0c0,0.801,0,1.583,0,2.451
					c-1.803,0-3.585,0-5.41,0c0,1.729,0,3.373,0,5.092c1.274,0,2.515,0,3.812,0c0,0.874,0,1.674,0,2.568c-1.27,0-2.529,0-3.821,0
					c0,1.924,0,3.756,0,5.669c1.788,0,3.57,0,5.405,0c0,0.884,0,1.689,0,2.509c-0.101,0.14-0.269,0.112-0.424,0.112
					c-2.591,0.004-5.183,0.007-7.774,0.005c-0.133,0-0.266-0.041-0.399-0.063c0.002-5.309,0.003-10.619,0.005-15.928
					C114.313,10.578,114.311,10.27,114.177,9.981z"/>
				<path fill="#7F8182" d="M105.164,8.467c0,0.811,0,1.577,0,2.431c-1.743,0-3.477,0-5.262,0c0,1.749,0,3.411,0,5.155
					c1.267,0,2.504,0,3.78,0c0,0.864,0,1.645,0,2.507c-1.268,0-2.506,0-3.787,0c0,1.928,0,3.776,0,5.706c1.744,0,3.48,0,5.256,0
					c0,0.886,0,1.692,0,2.552c-2.791,0-5.57,0-8.404,0c0-6.101,0-12.199,0-18.351C99.526,8.467,102.306,8.467,105.164,8.467z"/>
				<path fill="#7F8182" d="M114.177,9.981c0.134,0.289,0.136,0.598,0.136,0.907c-0.002,5.309-0.003,10.619-0.005,15.928
					c-0.381-1.142-0.438-2.347-0.685-3.516c-0.028-0.131-0.055-0.262-0.097-0.466c-1.102-0.082-2.2-0.034-3.361-0.029
					c-0.24,1.358-0.471,2.666-0.709,4.016c-1.026,0-2.012,0-3.109,0c1.08-6.154,2.074-12.282,3.44-18.371c1.343,0,2.655,0,3.989,0
					C114.085,8.909,113.903,9.508,114.177,9.981z M113.043,20.146c-0.252-2.155-0.74-4.208-1.32-6.265
					c-0.536,2.061-0.81,4.142-1.133,6.265C111.453,20.146,112.234,20.146,113.043,20.146z"/>
				<path fill="#7F8182" d="M77.815,10.943c-1.167,0-2.206,0-3.295,0c0-0.855,0-1.656,0-2.489c3.285,0,6.543,0,9.841,0
					c0,0.824,0,1.607,0,2.468c-1.113,0-2.192,0-3.352,0c0,5.335,0,10.593,0,15.9c-1.092,0-2.102,0-3.194,0
					C77.815,21.563,77.815,16.303,77.815,10.943z"/>
				<path fill="#FE6326" d="M127.292,24.277c1.81,0,3.508,0,5.262,0c0,0.866,0,1.687,0,2.553c-2.779,0-5.54,0-8.36,0
					c0-6.105,0-12.218,0-18.377c1.012,0,2.019,0,3.099,0C127.292,13.712,127.292,18.944,127.292,24.277z"/>
				<path fill="#FE6326" d="M147.334,8.441c1.006,0,1.974,0,2.995,0c0,6.12,0,12.219,0,18.376c-0.972,0-1.956,0-2.995,0
					C147.334,20.718,147.334,14.619,147.334,8.441z"/>
				<path fill="#FDFBFA" d="M88.486,16.527c0-1.86,0-3.685,0-5.546c0.72-0.073,1.392-0.099,2.06,0.056
					c0.511,0.118,0.835,0.472,1.003,0.936c0.451,1.243,0.417,2.492-0.052,3.727c-0.156,0.411-0.462,0.67-0.89,0.77
					C89.917,16.632,89.223,16.615,88.486,16.527z"/>
				<path fill="#FDFBFA" d="M44.375,16.531c0-1.877,0-3.699,0-5.507c0.275-0.148,0.529-0.088,0.772-0.089
					c1.829-0.006,2.346,0.438,2.557,2.23c0.091,0.772,0.013,1.535-0.234,2.281c-0.206,0.621-0.604,0.988-1.262,1.075
					C45.601,16.601,45.001,16.615,44.375,16.531z"/>
				<path fill="#FDFBFA" d="M58.882,20.15c-0.801,0-1.515,0-2.324,0c0.326-2.146,0.643-4.236,0.964-6.35
					c0.353,0.068,0.372,0.313,0.406,0.517C58.248,16.238,58.558,18.161,58.882,20.15z"/>
				<path fill="#FDFBFA" d="M113.043,20.146c-0.809,0-1.589,0-2.453,0c0.323-2.122,0.597-4.204,1.133-6.265
					C112.303,15.938,112.791,17.991,113.043,20.146z"/>
			</g>
		</g>
	</g>
	<g>
		<defs>
			<rect id="SVGID_3_" x="0.5" width="184" height="35"/>
		</defs>
		<clipPath id="SVGID_4_">
			<use xlink:href="#SVGID_3_"  overflow="visible"/>
		</clipPath>
		<g id="vZwgFV.tif" clip-path="url(#SVGID_4_)">
			<g>
				<path fill="#FEFCFB" d="M18.221,1.464c-3.671,0-7.342,0-11.013,0c-0.453,0-0.903,0.031-1.349,0.116
					C3.385,2.051,1.544,4.163,1.54,6.598c-0.011,7.288-0.006,14.577-0.001,21.865c0.001,0.949,0.265,1.834,0.795,2.62
					c1.09,1.619,2.633,2.462,4.576,2.467c7.643,0.018,15.287,0.008,22.931,0.005c0.214,0,0.429-0.027,0.643-0.047
					c2.502-0.24,4.798-2.408,4.74-5.231c-0.027-1.291-0.004-2.584-0.004-3.876c0-5.878-0.002-11.756,0.001-17.634
					c0.001-1.832-0.776-3.257-2.25-4.309c-0.988-0.705-2.112-0.994-3.317-0.994C25.843,1.464,22.032,1.464,18.221,1.464z"/>
				<path fill="#FE6023" d="M18.221,1.464c3.811,0,7.622,0,11.433,0c1.205,0,2.329,0.289,3.317,0.994
					c1.474,1.052,2.251,2.477,2.25,4.309c-0.004,5.878-0.001,11.756-0.001,17.634c0,1.292-0.022,2.584,0.004,3.876
					c0.058,2.822-2.238,4.991-4.74,5.231c-0.214,0.021-0.429,0.047-0.643,0.047c-7.644,0.002-15.287,0.012-22.931-0.005
					c-1.943-0.004-3.486-0.847-4.576-2.467c-0.529-0.787-0.794-1.671-0.795-2.62C1.534,21.175,1.529,13.887,1.54,6.598
					C1.544,4.163,3.385,2.051,5.859,1.58c0.446-0.085,0.896-0.116,1.349-0.116C10.879,1.464,14.55,1.464,18.221,1.464z
					 M14.861,21.643c0.878,0.666,1.831,1.037,2.877,1.168c0.181,0.023,0.231,0.097,0.229,0.268c-0.008,0.56-0.009,1.12,0.001,1.679
					c0.003,0.168-0.077,0.242-0.204,0.326c-0.485,0.319-0.679,0.833-0.525,1.34c0.163,0.536,0.639,0.879,1.219,0.877
					c0.565-0.001,1.047-0.34,1.21-0.85c0.166-0.521-0.025-1.043-0.526-1.366c-0.148-0.095-0.197-0.196-0.194-0.365
					c0.009-0.538,0.012-1.077-0.001-1.615c-0.005-0.207,0.066-0.276,0.268-0.301c0.922-0.115,1.782-0.414,2.544-0.953
					c0.203-0.144,0.317-0.116,0.485,0.047c0.967,0.936,1.937,1.868,2.925,2.782c0.227,0.21,0.329,0.392,0.199,0.686
					c-0.046,0.103-0.046,0.232-0.047,0.349c-0.004,1.045,0.9,1.803,2.032,1.708c0.978-0.082,1.719-1.009,1.57-1.965
					c-0.156-1.002-1.221-1.691-2.234-1.412c-0.273,0.075-0.428,0.012-0.615-0.17c-0.958-0.929-1.929-1.845-2.894-2.768
					c-0.083-0.08-0.19-0.143-0.223-0.263c0.009-0.024,0.011-0.048,0.024-0.064c0.626-0.793,1.048-1.676,1.178-2.685
					c0.024-0.185,0.145-0.18,0.28-0.18c0.538,0.002,1.077,0.011,1.615-0.004c0.236-0.007,0.382,0.06,0.531,0.26
					c0.408,0.55,1.199,0.644,1.765,0.247c0.533-0.375,0.67-1.053,0.323-1.599c-0.474-0.745-1.588-0.777-2.121-0.06
					c-0.076,0.102-0.121,0.226-0.285,0.225c-0.676-0.004-1.351-0.002-2.055-0.002c-0.116-1.154-0.544-2.158-1.241-3.033
					c0.041-0.056,0.056-0.086,0.079-0.107c1.106-1.055,2.215-2.106,3.318-3.165c0.123-0.118,0.229-0.104,0.377-0.071
					c0.759,0.173,1.415-0.023,1.913-0.628c0.51-0.619,0.488-1.5-0.023-2.115c-0.538-0.648-1.533-0.837-2.296-0.438
					c-0.74,0.387-1.103,1.204-0.854,1.991c0.078,0.245,0.066,0.399-0.132,0.583c-1.039,0.97-2.065,1.952-3.087,2.94
					c-0.149,0.144-0.244,0.142-0.406,0.024c-0.662-0.483-1.404-0.789-2.207-0.948c-0.25-0.049-0.502-0.086-0.781-0.133
					c0-0.607,0-1.198,0-1.788c0-0.054,0.003-0.108,0.001-0.161c-0.003-0.118,0.083-0.165,0.168-0.215
					c0.199-0.117,0.36-0.272,0.469-0.477c0.301-0.566,0.092-1.269-0.473-1.594c-0.604-0.347-1.371-0.165-1.735,0.412
					c-0.34,0.538-0.196,1.225,0.328,1.604c0.098,0.071,0.263,0.085,0.264,0.252c0.003,0.663,0.001,1.326,0.001,1.997
					c-1.101,0.132-2.073,0.484-2.931,1.122c-0.125,0.093-0.209,0.053-0.306-0.041c-1.103-1.058-2.208-2.115-3.316-3.168
					c-0.111-0.106-0.115-0.199-0.071-0.342c0.272-0.888-0.123-1.75-0.953-2.11C9.457,7.007,8.447,7.308,7.987,8.072
					C7.628,8.669,7.646,9.388,8.061,9.924c0.497,0.643,1.163,0.873,1.948,0.681c0.237-0.058,0.374-0.007,0.537,0.149
					c0.931,0.896,1.872,1.78,2.804,2.675c0.192,0.184,0.406,0.35,0.561,0.585c-0.634,0.825-1.046,1.737-1.159,2.77
					c-0.022,0.199-0.142,0.205-0.293,0.204c-0.571-0.003-1.142-0.013-1.712,0.004c-0.258,0.008-0.425-0.057-0.59-0.277
					c-0.364-0.486-1.029-0.606-1.573-0.335c-0.502,0.249-0.775,0.781-0.656,1.312c0.112,0.5,0.437,0.813,0.928,0.929
					c0.541,0.127,1.007-0.03,1.346-0.478c0.113-0.149,0.214-0.234,0.415-0.229c0.624,0.014,1.249,0.011,1.873,0.002
					c0.185-0.002,0.269,0.05,0.29,0.247c0.037,0.354,0.135,0.696,0.259,1.03c0.219,0.588,0.534,1.122,0.931,1.619
					c-0.075,0.081-0.13,0.146-0.191,0.204c-1.013,0.965-2.031,1.925-3.038,2.897c-0.18,0.174-0.329,0.231-0.589,0.153
					c-0.876-0.264-1.802,0.168-2.159,0.969c-0.303,0.679-0.138,1.43,0.427,1.942c0.585,0.53,1.498,0.614,2.196,0.203
					c0.666-0.392,0.989-1.119,0.79-1.879c-0.063-0.241-0.007-0.374,0.161-0.527c0.406-0.369,0.797-0.755,1.195-1.133
					C13.453,22.981,14.146,22.322,14.861,21.643z"/>
				<path fill="#FEFCFB" d="M14.861,21.643c-0.714,0.679-1.407,1.338-2.1,1.997c-0.398,0.378-0.789,0.764-1.195,1.133
					c-0.168,0.153-0.224,0.286-0.161,0.527c0.199,0.76-0.124,1.487-0.79,1.879c-0.698,0.411-1.611,0.327-2.196-0.203
					c-0.565-0.511-0.73-1.263-0.427-1.942c0.357-0.8,1.283-1.232,2.159-0.969c0.26,0.078,0.409,0.021,0.589-0.153
					c1.007-0.972,2.025-1.932,3.038-2.897c0.061-0.058,0.115-0.123,0.191-0.204c-0.397-0.497-0.712-1.031-0.931-1.619
					c-0.124-0.334-0.222-0.677-0.259-1.03c-0.02-0.197-0.105-0.249-0.29-0.247c-0.624,0.008-1.249,0.012-1.873-0.002
					c-0.201-0.005-0.302,0.08-0.415,0.229c-0.339,0.448-0.805,0.605-1.346,0.478c-0.49-0.115-0.815-0.429-0.928-0.929
					c-0.119-0.531,0.154-1.063,0.656-1.312c0.544-0.27,1.209-0.15,1.573,0.335c0.165,0.22,0.332,0.285,0.59,0.277
					c0.57-0.017,1.141-0.007,1.712-0.004c0.151,0.001,0.271-0.005,0.293-0.204c0.113-1.033,0.525-1.945,1.159-2.77
					c-0.155-0.235-0.369-0.401-0.561-0.585c-0.932-0.894-1.874-1.779-2.804-2.675c-0.162-0.156-0.3-0.207-0.537-0.149
					c-0.784,0.191-1.45-0.039-1.948-0.681C7.646,9.388,7.628,8.669,7.987,8.072c0.46-0.765,1.47-1.065,2.327-0.694
					c0.83,0.36,1.225,1.222,0.953,2.11c-0.044,0.142-0.04,0.236,0.071,0.342c1.108,1.053,2.212,2.11,3.316,3.168
					c0.097,0.093,0.181,0.134,0.306,0.041c0.858-0.638,1.83-0.99,2.931-1.122c0-0.672,0.002-1.335-0.001-1.997
					c-0.001-0.167-0.166-0.181-0.264-0.252c-0.525-0.379-0.668-1.065-0.328-1.604c0.364-0.578,1.131-0.76,1.735-0.412
					c0.565,0.325,0.774,1.028,0.473,1.594c-0.109,0.205-0.27,0.36-0.469,0.477c-0.085,0.05-0.17,0.097-0.168,0.215
					c0.001,0.054-0.001,0.108-0.001,0.161c0,0.59,0,1.181,0,1.788c0.279,0.047,0.531,0.084,0.781,0.133
					c0.803,0.158,1.545,0.465,2.207,0.948c0.162,0.118,0.257,0.12,0.406-0.024c1.022-0.987,2.048-1.97,3.087-2.94
					c0.198-0.185,0.209-0.339,0.132-0.583c-0.249-0.787,0.114-1.603,0.854-1.991c0.763-0.399,1.758-0.21,2.296,0.438
					c0.511,0.615,0.534,1.496,0.023,2.115c-0.498,0.605-1.154,0.8-1.913,0.628c-0.148-0.034-0.254-0.047-0.377,0.071
					c-1.103,1.059-2.212,2.111-3.318,3.165c-0.023,0.022-0.038,0.051-0.079,0.107c0.698,0.875,1.125,1.879,1.241,3.033
					c0.704,0,1.38-0.002,2.055,0.002c0.164,0.001,0.209-0.124,0.285-0.225c0.534-0.718,1.648-0.685,2.121,0.06
					c0.347,0.545,0.21,1.224-0.323,1.599c-0.566,0.398-1.357,0.304-1.765-0.247c-0.149-0.2-0.294-0.267-0.531-0.26
					c-0.538,0.015-1.076,0.006-1.615,0.004c-0.135,0-0.256-0.005-0.28,0.18c-0.13,1.01-0.552,1.892-1.178,2.685
					c-0.013,0.016-0.015,0.04-0.024,0.064c0.033,0.12,0.14,0.184,0.223,0.263c0.965,0.923,1.936,1.839,2.894,2.768
					c0.187,0.182,0.342,0.245,0.615,0.17c1.013-0.279,2.078,0.409,2.234,1.412c0.149,0.956-0.591,1.883-1.57,1.965
					c-1.132,0.095-2.036-0.663-2.032-1.708c0-0.117,0.001-0.246,0.047-0.349c0.13-0.294,0.028-0.477-0.199-0.686
					c-0.988-0.914-1.958-1.846-2.925-2.782c-0.168-0.163-0.282-0.191-0.485-0.047c-0.761,0.539-1.622,0.838-2.544,0.953
					c-0.202,0.025-0.273,0.094-0.268,0.301c0.013,0.538,0.01,1.077,0.001,1.615c-0.003,0.168,0.046,0.269,0.194,0.365
					c0.501,0.323,0.692,0.844,0.526,1.366c-0.163,0.51-0.645,0.848-1.21,0.85c-0.58,0.002-1.056-0.341-1.219-0.877
					c-0.154-0.507,0.04-1.022,0.525-1.34c0.127-0.084,0.207-0.158,0.204-0.326c-0.01-0.56-0.009-1.12-0.001-1.679
					c0.002-0.171-0.048-0.245-0.229-0.268C16.692,22.68,15.738,22.309,14.861,21.643z M9.422,8.981
					c0.003-0.433-0.261-0.778-0.596-0.78C8.498,8.2,8.216,8.565,8.221,8.982c0.005,0.407,0.279,0.742,0.605,0.74
					C9.163,9.72,9.418,9.403,9.422,8.981z M8.399,25.763c-0.006,0.43,0.266,0.776,0.611,0.775c0.325-0.001,0.592-0.341,0.594-0.757
					c0.002-0.417-0.26-0.751-0.593-0.756C8.681,25.02,8.405,25.353,8.399,25.763z M9.159,17.426
					c0.002-0.325-0.187-0.594-0.419-0.594c-0.228,0-0.421,0.276-0.417,0.597c0.004,0.32,0.175,0.562,0.403,0.571
					C8.966,18.01,9.157,17.757,9.159,17.426z"/>
				<path fill="#FE6023" d="M9.422,8.981C9.418,9.403,9.163,9.72,8.826,9.722c-0.327,0.002-0.601-0.333-0.605-0.74
					C8.216,8.565,8.498,8.2,8.825,8.202C9.161,8.203,9.425,8.548,9.422,8.981z"/>
				<path fill="#FE6023" d="M8.399,25.763c0.006-0.41,0.283-0.743,0.613-0.738c0.333,0.005,0.595,0.339,0.593,0.756
					c-0.002,0.417-0.269,0.756-0.594,0.757C8.665,26.538,8.392,26.193,8.399,25.763z"/>
				<path fill="#FE6023" d="M9.159,17.426C9.157,17.757,8.966,18.01,8.726,18c-0.229-0.009-0.399-0.251-0.403-0.571
					c-0.004-0.321,0.189-0.596,0.417-0.597C8.971,16.832,9.161,17.101,9.159,17.426z"/>
			</g>
		</g>
	</g>
</g>
</svg>
